<svg width="52" height="53" viewBox="0 0 52 53" fill="none" xmlns="http://www.w3.org/2000/svg">
<rect x="0.675934" y="1.30313" width="50.7212" height="50.7212" rx="16.7638" stroke="#C0C0C0" stroke-width="0.859681"/>
<path d="M33.9917 16.4118C33.8812 16.4121 33.7726 16.3827 33.6773 16.3267C31.0542 14.9223 28.7863 14.3266 26.0675 14.3266C23.3623 14.3266 20.7936 14.9933 18.4571 16.3267C18.1267 16.5134 17.7195 16.3834 17.528 16.0406C17.4425 15.8751 17.4232 15.6833 17.4741 15.5042C17.5249 15.325 17.642 15.1719 17.8017 15.076C20.3215 13.6468 23.1706 12.8996 26.0675 12.908C28.9772 12.908 31.5188 13.5747 34.3062 15.0642C34.4688 15.1536 34.5899 15.3032 34.6435 15.4809C34.6971 15.6586 34.6789 15.8502 34.5928 16.0146C34.5411 16.1313 34.457 16.2308 34.3504 16.3012C34.2439 16.3716 34.1194 16.41 33.9917 16.4118ZM14.4404 23.859C14.2984 23.858 14.1602 23.8134 14.0444 23.7314C13.8937 23.6194 13.7923 23.4533 13.7617 23.2681C13.731 23.0828 13.7735 22.8929 13.88 22.7384C15.233 20.7525 16.9535 19.1921 19.0039 18.0998C23.2937 15.8042 28.7863 15.7876 33.0898 18.0856C35.1395 19.1779 36.8607 20.7241 38.2136 22.6958C38.3197 22.8505 38.3619 23.0403 38.3313 23.2254C38.3007 23.4105 38.1996 23.5765 38.0493 23.6888C37.9764 23.7433 37.893 23.7823 37.8044 23.8033C37.7158 23.8243 37.6239 23.8269 37.5342 23.8109C37.4446 23.795 37.3592 23.7608 37.2833 23.7105C37.2074 23.6602 37.1426 23.5949 37.093 23.5186C35.8636 21.7312 34.3062 20.3269 32.4615 19.3481C28.5405 17.2629 23.526 17.2629 19.6186 19.3623C17.7603 20.3553 16.2029 21.7738 14.9735 23.5588C14.9205 23.6527 14.8428 23.7303 14.7488 23.7832C14.6548 23.8362 14.5482 23.8624 14.4404 23.859ZM22.9793 40.9829C22.889 40.9838 22.7995 40.9653 22.717 40.9285C22.6345 40.8918 22.5609 40.8378 22.5011 40.7702C21.3125 39.5337 20.6683 38.7369 19.7551 37.0229C18.8094 35.2781 18.3206 33.1503 18.3206 30.8665C18.3206 26.6535 21.7907 23.2207 26.0539 23.2207C30.3172 23.2207 33.7896 26.6535 33.7896 30.8665C33.7923 30.9579 33.7766 31.0489 33.7435 31.1341C33.7104 31.2193 33.6605 31.297 33.5968 31.3626C33.5331 31.4282 33.4569 31.4803 33.3727 31.5159C33.2885 31.5515 33.198 31.5699 33.1066 31.5699C33.0152 31.5699 32.9247 31.5515 32.8405 31.5159C32.7563 31.4803 32.6801 31.4282 32.6164 31.3626C32.5528 31.297 32.5029 31.2193 32.4698 31.1341C32.4367 31.0489 32.421 30.9579 32.4237 30.8665C32.4237 27.4337 29.5677 24.6392 26.0569 24.6392C22.546 24.6392 19.6871 27.4337 19.6871 30.8665C19.6871 32.9092 20.1239 34.7958 20.9573 36.3278C21.832 37.9591 22.4349 38.6542 23.4852 39.7606C23.6098 39.8983 23.6787 40.0774 23.6787 40.263C23.6787 40.4487 23.6098 40.6278 23.4852 40.7654C23.3511 40.9007 23.1697 40.9787 22.9793 40.9829ZM32.7759 38.3587C31.15 38.3587 29.7155 37.9331 28.5405 37.0962C27.5394 36.3945 26.7216 35.4626 26.1558 34.3789C25.5901 33.2951 25.2931 32.0914 25.2897 30.8689C25.2859 30.7768 25.3007 30.6848 25.3333 30.5986C25.3659 30.5123 25.4156 30.4336 25.4794 30.3671C25.5433 30.3005 25.6199 30.2476 25.7047 30.2114C25.7895 30.1753 25.8807 30.1566 25.9729 30.1566C26.0651 30.1566 26.1564 30.1753 26.2412 30.2114C26.326 30.2476 26.4026 30.3005 26.4664 30.3671C26.5303 30.4336 26.58 30.5123 26.6126 30.5986C26.6452 30.6848 26.66 30.7768 26.6562 30.8689C26.6585 31.8619 26.9007 32.8396 27.3621 33.7188C27.8235 34.5981 28.4906 35.3528 29.3065 35.9188C30.2764 36.5997 31.4106 36.9236 32.7771 36.9236C33.253 36.9151 33.7275 36.8677 34.1956 36.7818C34.5645 36.7108 34.9197 36.9662 34.9876 37.3633C35.0223 37.5466 34.9828 37.7362 34.8779 37.8904C34.7729 38.0447 34.6111 38.151 34.4279 38.1861C33.8837 38.2936 33.3307 38.3506 32.7759 38.3563V38.3587ZM30.0293 41.2785C29.9693 41.276 29.9098 41.2664 29.852 41.2501C27.6793 40.6259 26.2584 39.789 24.769 38.2712C22.8557 36.2995 21.8043 33.6752 21.8043 30.8665C21.8043 28.5685 23.6897 26.6961 26.0119 26.6961C28.3342 26.6961 30.2202 28.5685 30.2202 30.8665C30.2202 32.3843 31.491 33.6184 33.062 33.6184C34.633 33.6184 35.9038 32.3843 35.9038 30.8665C35.9038 25.5187 31.4632 21.178 25.9984 21.178C22.1181 21.178 18.5659 23.4193 16.9677 26.8947C16.4357 28.0437 16.1615 29.3913 16.1615 30.8665C16.1615 31.973 16.2567 33.7177 17.0764 35.9874C17.2136 36.3562 17.0357 36.7676 16.6804 36.8952C16.596 36.9274 16.506 36.9421 16.4157 36.9386C16.3254 36.9351 16.2368 36.9133 16.1552 36.8747C16.0735 36.836 16.0005 36.7813 15.9406 36.7137C15.8806 36.6462 15.8349 36.5672 15.8063 36.4815C15.1471 34.6828 14.8093 32.7822 14.8086 30.8665C14.8086 29.1643 15.123 27.6157 15.7377 26.2705C17.5552 22.3105 21.5856 19.7453 25.9984 19.7453C32.215 19.7453 37.2703 24.7243 37.2703 30.8523C37.2703 33.1503 35.3848 35.0228 33.062 35.0228C30.7392 35.0228 28.8537 33.1503 28.8537 30.8523C28.8543 29.3345 27.5836 28.098 26.0125 28.098C24.4415 28.098 23.1708 29.3321 23.1708 30.85C23.1708 33.2733 24.0727 35.5453 25.7259 37.2475C27.0262 38.5809 28.2674 39.3162 30.1936 39.8718C30.5624 39.9711 30.7675 40.3682 30.6718 40.7371C30.642 40.8868 30.5621 41.0219 30.4454 41.1203C30.3286 41.2187 30.1819 41.2744 30.0293 41.2785Z" fill="#141414"/>
</svg>
