<svg width="349" height="172" viewBox="0 0 349 172" fill="none" xmlns="http://www.w3.org/2000/svg">
<rect y="24.3262" width="348" height="147" rx="15" fill="#7D5FFF"/>
<mask id="mask0_3_1410" style="mask-type:alpha" maskUnits="userSpaceOnUse" x="-1" y="24" width="350" height="148">
<rect x="-0.115234" y="24.0586" width="348.23" height="147.54" rx="15" fill="#4CC1FF"/>
</mask>
<g mask="url(#mask0_3_1410)">
<path d="M42.55 102.7L36.65 106.95C37.45 108.617 38.5667 110.15 40 111.55C41.4333 112.95 43.1167 114.067 45.05 114.9C47.0167 115.7 49.1333 116.1 51.4 116.1C53.0333 116.1 54.6167 115.85 56.15 115.35C57.7167 114.883 59.1 114.183 60.3 113.25C61.5333 112.317 62.5 111.167 63.2 109.8C63.9333 108.4 64.3 106.817 64.3 105.05C64.3 103.583 64.0667 102.283 63.6 101.15C63.1333 100.017 62.4833 99.0167 61.65 98.15C60.85 97.2833 59.9167 96.55 58.85 95.95C57.7833 95.3167 56.6333 94.7667 55.4 94.3C53.7667 93.7333 52.3667 93.2 51.2 92.7C50.0667 92.2 49.1833 91.65 48.55 91.05C47.95 90.45 47.65 89.75 47.65 88.95C47.65 88.1833 47.9667 87.55 48.6 87.05C49.2333 86.5167 50.15 86.25 51.35 86.25C52.25 86.25 53.0833 86.4333 53.85 86.8C54.65 87.1333 55.3667 87.6167 56 88.25C56.6667 88.85 57.25 89.5667 57.75 90.4L64.2 86.8C63.6 85.6 62.7333 84.4167 61.6 83.25C60.4667 82.0833 59.0333 81.1167 57.3 80.35C55.6 79.5833 53.5833 79.2 51.25 79.2C48.9833 79.2 46.9167 79.6 45.05 80.4C43.2167 81.1667 41.75 82.3 40.65 83.8C39.5833 85.3 39.05 87.0833 39.05 89.15C39.05 90.8833 39.3667 92.3667 40 93.6C40.6333 94.8 41.4333 95.8333 42.4 96.7C43.3667 97.5333 44.3833 98.2167 45.45 98.75C46.55 99.2833 47.5167 99.7 48.35 100C50.05 100.633 51.4167 101.2 52.45 101.7C53.4833 102.2 54.2333 102.733 54.7 103.3C55.1667 103.833 55.4 104.55 55.4 105.45C55.4 106.517 55 107.367 54.2 108C53.4 108.6 52.3833 108.9 51.15 108.9C49.9833 108.9 48.8667 108.65 47.8 108.15C46.7667 107.65 45.8 106.933 44.9 106C44.0333 105.067 43.25 103.967 42.55 102.7ZM66.5 92V98.25H81.9V92H66.5ZM70.55 84V115H77.8V84H70.55ZM90.968 107.8C90.968 107.233 91.1013 106.767 91.368 106.4C91.6346 106 92.0346 105.7 92.568 105.5C93.1013 105.3 93.818 105.2 94.718 105.2C95.8846 105.2 96.9846 105.367 98.018 105.7C99.0846 106 100.018 106.45 100.818 107.05V103.7C100.418 103.267 99.818 102.85 99.018 102.45C98.218 102.05 97.2513 101.717 96.118 101.45C95.018 101.183 93.768 101.05 92.368 101.05C89.5013 101.05 87.2846 101.7 85.718 103C84.1513 104.267 83.368 106 83.368 108.2C83.368 109.767 83.7346 111.1 84.468 112.2C85.2346 113.3 86.2346 114.133 87.468 114.7C88.7346 115.233 90.1013 115.5 91.568 115.5C93.0346 115.5 94.4013 115.25 95.668 114.75C96.9346 114.217 97.968 113.45 98.768 112.45C99.568 111.417 99.968 110.167 99.968 108.7L99.168 105.7C99.168 106.767 98.9346 107.667 98.468 108.4C98.0013 109.133 97.4013 109.683 96.668 110.05C95.9346 110.417 95.1346 110.6 94.268 110.6C93.668 110.6 93.118 110.5 92.618 110.3C92.118 110.067 91.718 109.75 91.418 109.35C91.118 108.917 90.968 108.4 90.968 107.8ZM87.618 99.05C87.9513 98.85 88.4846 98.6 89.218 98.3C89.9513 97.9667 90.8013 97.6833 91.768 97.45C92.768 97.2167 93.7846 97.1 94.818 97.1C95.518 97.1 96.1346 97.1667 96.668 97.3C97.2346 97.4333 97.7013 97.65 98.068 97.95C98.4346 98.25 98.7013 98.6167 98.868 99.05C99.068 99.45 99.168 99.9333 99.168 100.5V115H106.418V98.8C106.418 97.2 105.951 95.85 105.018 94.75C104.085 93.65 102.818 92.8167 101.218 92.25C99.618 91.65 97.8013 91.35 95.768 91.35C93.6013 91.35 91.6013 91.6333 89.768 92.2C87.9346 92.7667 86.368 93.3667 85.068 94L87.618 99.05ZM127.021 101V115H134.871V100.2C134.871 97.4333 134.221 95.2833 132.921 93.75C131.621 92.2167 129.538 91.45 126.671 91.45C124.971 91.45 123.538 91.8 122.371 92.5C121.238 93.2 120.338 94.1833 119.671 95.45V92H112.071V115H119.671V101C119.671 100.1 119.838 99.3333 120.171 98.7C120.504 98.0667 120.971 97.5833 121.571 97.25C122.171 96.9167 122.871 96.75 123.671 96.75C124.871 96.75 125.721 97.1167 126.221 97.85C126.754 98.5833 127.021 99.6333 127.021 101ZM158.281 76V115H165.831V76H158.281ZM139.481 103.5C139.481 106.067 139.998 108.25 141.031 110.05C142.098 111.817 143.464 113.167 145.131 114.1C146.798 115.033 148.564 115.5 150.431 115.5C152.364 115.5 154.064 115.017 155.531 114.05C157.031 113.083 158.214 111.7 159.081 109.9C159.948 108.1 160.381 105.967 160.381 103.5C160.381 101 159.948 98.8667 159.081 97.1C158.214 95.3 157.031 93.9167 155.531 92.95C154.064 91.9833 152.364 91.5 150.431 91.5C148.564 91.5 146.798 91.9667 145.131 92.9C143.464 93.8333 142.098 95.1833 141.031 96.95C139.998 98.7167 139.481 100.9 139.481 103.5ZM147.431 103.5C147.431 102.3 147.681 101.267 148.181 100.4C148.681 99.5 149.348 98.8167 150.181 98.35C151.014 97.85 151.931 97.6 152.931 97.6C153.798 97.6 154.631 97.8333 155.431 98.3C156.264 98.7667 156.948 99.45 157.481 100.35C158.014 101.217 158.281 102.267 158.281 103.5C158.281 104.733 158.014 105.8 157.481 106.7C156.948 107.567 156.264 108.233 155.431 108.7C154.631 109.167 153.798 109.4 152.931 109.4C151.931 109.4 151.014 109.167 150.181 108.7C149.348 108.2 148.681 107.517 148.181 106.65C147.681 105.75 147.431 104.7 147.431 103.5ZM177.54 107.8C177.54 107.233 177.674 106.767 177.94 106.4C178.207 106 178.607 105.7 179.14 105.5C179.674 105.3 180.39 105.2 181.29 105.2C182.457 105.2 183.557 105.367 184.59 105.7C185.657 106 186.59 106.45 187.39 107.05V103.7C186.99 103.267 186.39 102.85 185.59 102.45C184.79 102.05 183.824 101.717 182.69 101.45C181.59 101.183 180.34 101.05 178.94 101.05C176.074 101.05 173.857 101.7 172.29 103C170.724 104.267 169.94 106 169.94 108.2C169.94 109.767 170.307 111.1 171.04 112.2C171.807 113.3 172.807 114.133 174.04 114.7C175.307 115.233 176.674 115.5 178.14 115.5C179.607 115.5 180.974 115.25 182.24 114.75C183.507 114.217 184.54 113.45 185.34 112.45C186.14 111.417 186.54 110.167 186.54 108.7L185.74 105.7C185.74 106.767 185.507 107.667 185.04 108.4C184.574 109.133 183.974 109.683 183.24 110.05C182.507 110.417 181.707 110.6 180.84 110.6C180.24 110.6 179.69 110.5 179.19 110.3C178.69 110.067 178.29 109.75 177.99 109.35C177.69 108.917 177.54 108.4 177.54 107.8ZM174.19 99.05C174.524 98.85 175.057 98.6 175.79 98.3C176.524 97.9667 177.374 97.6833 178.34 97.45C179.34 97.2167 180.357 97.1 181.39 97.1C182.09 97.1 182.707 97.1667 183.24 97.3C183.807 97.4333 184.274 97.65 184.64 97.95C185.007 98.25 185.274 98.6167 185.44 99.05C185.64 99.45 185.74 99.9333 185.74 100.5V115H192.99V98.8C192.99 97.2 192.524 95.85 191.59 94.75C190.657 93.65 189.39 92.8167 187.79 92.25C186.19 91.65 184.374 91.35 182.34 91.35C180.174 91.35 178.174 91.6333 176.34 92.2C174.507 92.7667 172.94 93.3667 171.64 94L174.19 99.05ZM206.093 92H198.643V115H206.093V92ZM212.743 99.8L215.993 93.35C215.593 92.75 215.01 92.2833 214.243 91.95C213.477 91.6167 212.677 91.45 211.843 91.45C210.577 91.45 209.36 91.8667 208.193 92.7C207.027 93.5333 206.077 94.6667 205.343 96.1C204.643 97.5333 204.293 99.1667 204.293 101L206.093 103.65C206.093 102.55 206.243 101.617 206.543 100.85C206.843 100.083 207.277 99.5 207.843 99.1C208.41 98.7 209.06 98.5 209.793 98.5C210.46 98.5 211.01 98.6167 211.443 98.85C211.91 99.0833 212.343 99.4 212.743 99.8ZM236.65 76V115H244.2V76H236.65ZM217.85 103.5C217.85 106.067 218.367 108.25 219.4 110.05C220.467 111.817 221.833 113.167 223.5 114.1C225.167 115.033 226.933 115.5 228.8 115.5C230.733 115.5 232.433 115.017 233.9 114.05C235.4 113.083 236.583 111.7 237.45 109.9C238.317 108.1 238.75 105.967 238.75 103.5C238.75 101 238.317 98.8667 237.45 97.1C236.583 95.3 235.4 93.9167 233.9 92.95C232.433 91.9833 230.733 91.5 228.8 91.5C226.933 91.5 225.167 91.9667 223.5 92.9C221.833 93.8333 220.467 95.1833 219.4 96.95C218.367 98.7167 217.85 100.9 217.85 103.5ZM225.8 103.5C225.8 102.3 226.05 101.267 226.55 100.4C227.05 99.5 227.717 98.8167 228.55 98.35C229.383 97.85 230.3 97.6 231.3 97.6C232.167 97.6 233 97.8333 233.8 98.3C234.633 98.7667 235.317 99.45 235.85 100.35C236.383 101.217 236.65 102.267 236.65 103.5C236.65 104.733 236.383 105.8 235.85 106.7C235.317 107.567 234.633 108.233 233.8 108.7C233 109.167 232.167 109.4 231.3 109.4C230.3 109.4 229.383 109.167 228.55 108.7C227.717 108.2 227.05 107.517 226.55 106.65C226.05 105.75 225.8 104.7 225.8 103.5Z" fill="white"/>
<path d="M302.277 108.002C301.199 107.987 300.167 107.576 299.381 106.848L270.934 78.7465C270.286 77.9665 269.955 76.9763 270.005 75.9685C270.055 74.9606 270.483 74.0072 271.205 73.2937C271.927 72.5802 272.893 72.1576 273.913 72.1081C274.933 72.0586 275.935 72.3858 276.725 73.0259L302.277 98.3171L356.275 44.9247C357.065 44.2845 358.067 43.9574 359.087 44.0069C360.107 44.0563 361.073 44.479 361.795 45.1925C362.517 45.906 362.945 46.8594 362.995 47.8672C363.045 48.8751 362.714 49.8653 362.066 50.6453L305.172 106.848C304.386 107.576 303.354 107.987 302.277 108.002Z" fill="#6A4AF9"/>
<path d="M305.277 135C304.199 134.985 303.167 134.567 302.381 133.828L273.934 105.287C273.286 104.495 272.955 103.49 273.005 102.466C273.055 101.442 273.483 100.474 274.205 99.7495C274.927 99.0248 275.893 98.5956 276.913 98.5453C277.933 98.495 278.935 98.8273 279.725 99.4775L305.277 125.164L359.275 70.9371C360.065 70.287 361.067 69.9547 362.087 70.005C363.107 70.0552 364.073 70.4845 364.795 71.2091C365.517 71.9338 365.945 72.9021 365.995 73.9257C366.045 74.9492 365.714 75.9549 365.066 76.7471L308.172 133.828C307.386 134.567 306.354 134.985 305.277 135Z" fill="#6A4AF9"/>
</g>
<rect x="35" width="122" height="48" rx="10" fill="#38CC47"/>
<path d="M57.628 16.6V32H61.346V16.6H57.628ZM59.96 19.658H62.974C63.722 19.658 64.3087 19.8267 64.734 20.164C65.1593 20.5013 65.372 20.9927 65.372 21.638C65.372 22.2687 65.1593 22.7527 64.734 23.09C64.3087 23.4273 63.722 23.596 62.974 23.596H59.96V26.654H62.974C64.2793 26.654 65.372 26.456 66.252 26.06C67.1467 25.6493 67.8213 25.07 68.276 24.322C68.7307 23.5593 68.958 22.6647 68.958 21.638C68.958 20.582 68.7307 19.68 68.276 18.932C67.8213 18.184 67.1467 17.612 66.252 17.216C65.372 16.8053 64.2793 16.6 62.974 16.6H59.96V19.658ZM69.745 26.94C69.745 27.996 69.9943 28.92 70.493 29.712C70.9917 30.504 71.681 31.12 72.561 31.56C73.441 32 74.431 32.22 75.531 32.22C76.631 32.22 77.6137 32 78.479 31.56C79.359 31.12 80.0483 30.504 80.547 29.712C81.0603 28.92 81.317 27.996 81.317 26.94C81.317 25.8693 81.0603 24.938 80.547 24.146C80.0483 23.354 79.359 22.738 78.479 22.298C77.6137 21.858 76.631 21.638 75.531 21.638C74.431 21.638 73.441 21.858 72.561 22.298C71.681 22.738 70.9917 23.354 70.493 24.146C69.9943 24.938 69.745 25.8693 69.745 26.94ZM73.155 26.94C73.155 26.412 73.265 25.9573 73.485 25.576C73.705 25.1947 73.991 24.9013 74.343 24.696C74.695 24.4907 75.091 24.388 75.531 24.388C75.9563 24.388 76.345 24.4907 76.697 24.696C77.0637 24.9013 77.3497 25.1947 77.555 25.576C77.775 25.9573 77.885 26.412 77.885 26.94C77.885 27.468 77.775 27.9227 77.555 28.304C77.3497 28.6707 77.0637 28.9567 76.697 29.162C76.345 29.3673 75.9563 29.47 75.531 29.47C75.091 29.47 74.695 29.3673 74.343 29.162C73.991 28.9567 73.705 28.6707 73.485 28.304C73.265 27.9227 73.155 27.468 73.155 26.94ZM86.6156 36.84V21.88H83.2936V36.84H86.6156ZM94.8876 26.94C94.8876 25.752 94.6529 24.762 94.1836 23.97C93.7289 23.1633 93.1349 22.5547 92.4016 22.144C91.6829 21.7333 90.9056 21.528 90.0696 21.528C89.1896 21.528 88.4269 21.7553 87.7816 22.21C87.1509 22.65 86.6669 23.2733 86.3296 24.08C85.9922 24.8867 85.8236 25.84 85.8236 26.94C85.8236 28.0253 85.9922 28.9787 86.3296 29.8C86.6669 30.6067 87.1509 31.2373 87.7816 31.692C88.4269 32.132 89.1896 32.352 90.0696 32.352C90.9056 32.352 91.6829 32.1467 92.4016 31.736C93.1349 31.3253 93.7289 30.7167 94.1836 29.91C94.6529 29.1033 94.8876 28.1133 94.8876 26.94ZM91.3896 26.94C91.3896 27.468 91.2796 27.9153 91.0596 28.282C90.8396 28.6487 90.5462 28.9273 90.1796 29.118C89.8129 29.3087 89.4096 29.404 88.9696 29.404C88.5882 29.404 88.2142 29.316 87.8476 29.14C87.4956 28.9493 87.2022 28.6707 86.9676 28.304C86.7329 27.9373 86.6156 27.4827 86.6156 26.94C86.6156 26.3973 86.7329 25.9427 86.9676 25.576C87.2022 25.2093 87.4956 24.938 87.8476 24.762C88.2142 24.5713 88.5882 24.476 88.9696 24.476C89.4096 24.476 89.8129 24.5713 90.1796 24.762C90.5462 24.9527 90.8396 25.2313 91.0596 25.598C91.2796 25.9647 91.3896 26.412 91.3896 26.94ZM100.37 28.04V21.88H96.8937V28.392C96.8937 29.5947 97.1797 30.5407 97.7517 31.23C98.3384 31.9047 99.2624 32.242 100.524 32.242C101.272 32.242 101.895 32.088 102.394 31.78C102.892 31.4573 103.296 31.0247 103.604 30.482V32H106.926V21.88H103.604V28.04C103.604 28.436 103.53 28.7733 103.384 29.052C103.237 29.3307 103.032 29.5433 102.768 29.69C102.518 29.8367 102.21 29.91 101.844 29.91C101.301 29.91 100.92 29.7487 100.7 29.426C100.48 29.0887 100.37 28.6267 100.37 28.04ZM109.548 14.84V32H112.892V14.84H109.548ZM118.052 28.832C118.052 28.5827 118.11 28.3773 118.228 28.216C118.345 28.04 118.521 27.908 118.756 27.82C118.99 27.732 119.306 27.688 119.702 27.688C120.215 27.688 120.699 27.7613 121.154 27.908C121.623 28.04 122.034 28.238 122.386 28.502V27.028C122.21 26.8373 121.946 26.654 121.594 26.478C121.242 26.302 120.816 26.1553 120.318 26.038C119.834 25.9207 119.284 25.862 118.668 25.862C117.406 25.862 116.431 26.148 115.742 26.72C115.052 27.2773 114.708 28.04 114.708 29.008C114.708 29.6973 114.869 30.284 115.192 30.768C115.529 31.252 115.969 31.6187 116.512 31.868C117.069 32.1027 117.67 32.22 118.316 32.22C118.961 32.22 119.562 32.11 120.12 31.89C120.677 31.6553 121.132 31.318 121.484 30.878C121.836 30.4233 122.012 29.8733 122.012 29.228L121.66 27.908C121.66 28.3773 121.557 28.7733 121.352 29.096C121.146 29.4187 120.882 29.6607 120.56 29.822C120.237 29.9833 119.885 30.064 119.504 30.064C119.24 30.064 118.998 30.02 118.778 29.932C118.558 29.8293 118.382 29.69 118.25 29.514C118.118 29.3233 118.052 29.096 118.052 28.832ZM116.578 24.982C116.724 24.894 116.959 24.784 117.282 24.652C117.604 24.5053 117.978 24.3807 118.404 24.278C118.844 24.1753 119.291 24.124 119.746 24.124C120.054 24.124 120.325 24.1533 120.56 24.212C120.809 24.2707 121.014 24.366 121.176 24.498C121.337 24.63 121.454 24.7913 121.528 24.982C121.616 25.158 121.66 25.3707 121.66 25.62V32H124.85V24.872C124.85 24.168 124.644 23.574 124.234 23.09C123.823 22.606 123.266 22.2393 122.562 21.99C121.858 21.726 121.058 21.594 120.164 21.594C119.21 21.594 118.33 21.7187 117.524 21.968C116.717 22.2173 116.028 22.4813 115.456 22.76L116.578 24.982ZM130.615 21.88H127.337V32H130.615V21.88ZM133.541 25.312L134.971 22.474C134.795 22.21 134.538 22.0047 134.201 21.858C133.864 21.7113 133.512 21.638 133.145 21.638C132.588 21.638 132.052 21.8213 131.539 22.188C131.026 22.5547 130.608 23.0533 130.285 23.684C129.977 24.3147 129.823 25.0333 129.823 25.84L130.615 27.006C130.615 26.522 130.681 26.1113 130.813 25.774C130.945 25.4367 131.136 25.18 131.385 25.004C131.634 24.828 131.92 24.74 132.243 24.74C132.536 24.74 132.778 24.7913 132.969 24.894C133.174 24.9967 133.365 25.136 133.541 25.312Z" fill="#231656"/>
</svg>
